<svg xmlns="http://www.w3.org/2000/svg" width="1em" height="1em" viewBox="0 0 24 24"><path fill="currentColor" d="m20.996 11.712l1.249-.04a1.25 1.25 0 0 0-1.605-1.159zm-8.707-8.707l1.198.355a1.25 1.25 0 0 0-1.16-1.605zm8.35 7.508A5.8 5.8 0 0 1 19 10.75v2.5a8.3 8.3 0 0 0 2.351-.34zM19 10.75A5.75 5.75 0 0 1 13.25 5h-2.5A8.25 8.25 0 0 0 19 13.25zM13.25 5c0-.572.083-1.122.237-1.64l-2.397-.71A8.3 8.3 0 0 0 10.75 5zM12 4.25q.124 0 .25.004l.078-2.499A10 10 0 0 0 12 1.75zM4.25 12A7.75 7.75 0 0 1 12 4.25v-2.5C6.34 1.75 1.75 6.34 1.75 12zM12 19.75A7.75 7.75 0 0 1 4.25 12h-2.5c0 5.66 4.59 10.25 10.25 10.25zM19.75 12A7.75 7.75 0 0 1 12 19.75v2.5c5.66 0 10.25-4.59 10.25-10.25zm-.004-.25q.004.126.004.25h2.5q0-.165-.005-.328z"/></svg>
